<svg width="68" height="32" viewBox="0 0 68 32" fill="none" xmlns="http://www.w3.org/2000/svg">
<path d="M57.5885 16.1915C57.5885 16.7072 57.5211 17.2046 57.3862 17.6837C57.2565 18.1577 57.0698 18.603 56.826 19.0197C56.5821 19.4311 56.2916 19.8087 55.9544 20.1525C55.6173 20.491 55.2412 20.7827 54.8261 21.0275C54.4111 21.2723 53.965 21.4624 53.4878 21.5978C53.0157 21.728 52.5229 21.7931 52.0093 21.7931H48.6477V10.59H52.0093C52.5229 10.59 53.0157 10.6577 53.4878 10.7931C53.965 10.9233 54.4111 11.1108 54.8261 11.3556C55.2412 11.6004 55.6173 11.8947 55.9544 12.2384C56.2916 12.577 56.5821 12.9546 56.826 13.3712C57.0698 13.7827 57.2565 14.228 57.3862 14.7072C57.5211 15.1811 57.5885 15.6759 57.5885 16.1915ZM55.3553 16.1915C55.3553 15.728 55.2671 15.2931 55.0907 14.8869C54.9195 14.4806 54.6809 14.1264 54.3748 13.8244C54.074 13.5171 53.7186 13.2749 53.3088 13.0978C52.9042 12.9207 52.471 12.8322 52.0093 12.8322H50.8966V19.5509H52.0093C52.471 19.5509 52.9042 19.465 53.3088 19.2931C53.7186 19.116 54.074 18.8764 54.3748 18.5744C54.6809 18.2671 54.9195 17.9103 55.0907 17.504C55.2671 17.0926 55.3553 16.6551 55.3553 16.1915Z" fill="white"/>
<path d="M68 18.4337C68 18.8973 67.9118 19.3322 67.7354 19.7384C67.5591 20.1447 67.3178 20.5014 67.0118 20.8087C66.7109 21.1108 66.3581 21.3504 65.9535 21.5275C65.5489 21.7046 65.1157 21.7931 64.654 21.7931H59.0748V10.59H64.654C65.1157 10.59 65.5489 10.6785 65.9535 10.8556C66.3581 11.0327 66.7109 11.2749 67.0118 11.5822C67.3178 11.8842 67.5591 12.2384 67.7354 12.6447C67.9118 13.0509 68 13.4858 68 13.9494C68 14.1577 67.9715 14.3712 67.9144 14.59C67.8573 14.8087 67.7769 15.0197 67.6732 15.2228C67.5694 15.4259 67.4449 15.6108 67.2997 15.7775C67.1544 15.9441 66.9936 16.0822 66.8172 16.1915C66.9988 16.2905 67.1622 16.4259 67.3075 16.5978C67.4527 16.7645 67.5772 16.9494 67.681 17.1525C67.7847 17.3556 67.8625 17.5691 67.9144 17.7931C67.9715 18.0119 68 18.2254 68 18.4337ZM61.308 19.5509H64.654C64.8096 19.5509 64.9549 19.5223 65.0898 19.465C65.2246 19.4077 65.3414 19.3296 65.4399 19.2306C65.5437 19.1264 65.6241 19.0066 65.6812 18.8712C65.7382 18.7358 65.7667 18.59 65.7667 18.4337C65.7667 18.2775 65.7382 18.1316 65.6812 17.9962C65.6241 17.8608 65.5437 17.7436 65.4399 17.6447C65.3414 17.5405 65.2246 17.4598 65.0898 17.4025C64.9549 17.3452 64.8096 17.3165 64.654 17.3165H61.308V19.5509ZM61.308 15.0744H64.654C64.8096 15.0744 64.9549 15.0457 65.0898 14.9884C65.2246 14.9311 65.3414 14.853 65.4399 14.754C65.5437 14.6499 65.6241 14.5301 65.6812 14.3947C65.7382 14.254 65.7667 14.1056 65.7667 13.9494C65.7667 13.7931 65.7382 13.6473 65.6812 13.5119C65.6241 13.3764 65.5437 13.2592 65.4399 13.1603C65.3414 13.0561 65.2246 12.9754 65.0898 12.9181C64.9549 12.8608 64.8096 12.8322 64.654 12.8322H61.308V15.0744Z" fill="white"/>
<path fill-rule="evenodd" clip-rule="evenodd" d="M0 26.4828H67.8664V29.2414C67.8664 30.7649 66.0826 32 63.8823 32H3.98406C1.78372 32 0 30.7649 0 29.2414V26.4828ZM7.96812 27.8145H13.7381C14.4969 27.8145 15.1119 28.2404 15.1119 28.7658V29.717C15.1119 30.2424 14.4969 30.6683 13.7381 30.6683H7.96812C7.20938 30.6683 6.5943 30.2424 6.5943 29.717V28.7658C6.5943 28.2404 7.20938 27.8145 7.96812 27.8145ZM29.1248 27.8145H23.3548C22.5961 27.8145 21.981 28.2404 21.981 28.7658V29.717C21.981 30.2424 22.5961 30.6683 23.3548 30.6683H29.1248C29.8836 30.6683 30.4987 30.2424 30.4987 29.717V28.7658C30.4987 28.2404 29.8836 27.8145 29.1248 27.8145ZM38.7415 27.8145H44.5115C45.2703 27.8145 45.8854 28.2404 45.8854 28.7658V29.717C45.8854 30.2424 45.2703 30.6683 44.5115 30.6683H38.7415C37.9828 30.6683 37.3677 30.2424 37.3677 29.717V28.7658C37.3677 28.2404 37.9828 27.8145 38.7415 27.8145ZM59.8983 27.8145H54.1282C53.3695 27.8145 52.7544 28.2404 52.7544 28.7658V29.717C52.7544 30.2424 53.3695 30.6683 54.1282 30.6683H59.8983C60.657 30.6683 61.2721 30.2424 61.2721 29.717V28.7658C61.2721 28.2404 60.657 27.8145 59.8983 27.8145Z" fill="white"/>
<path fill-rule="evenodd" clip-rule="evenodd" d="M0 5.51724H67.8664V2.75862C67.8664 1.23508 66.0826 0 63.8823 0H3.98406C1.78372 0 0 1.23508 0 2.75862V5.51724ZM7.96812 4.18549H13.7381C14.4969 4.18549 15.1119 3.7596 15.1119 3.23425V2.283C15.1119 1.75764 14.4969 1.33175 13.7381 1.33175H7.96812C7.20938 1.33175 6.5943 1.75764 6.5943 2.283V3.23425C6.5943 3.7596 7.20938 4.18549 7.96812 4.18549ZM29.1248 4.18549H23.3548C22.5961 4.18549 21.981 3.7596 21.981 3.23425V2.283C21.981 1.75764 22.5961 1.33175 23.3548 1.33175H29.1248C29.8836 1.33175 30.4987 1.75764 30.4987 2.283V3.23425C30.4987 3.7596 29.8836 4.18549 29.1248 4.18549ZM38.7415 4.18549H44.5115C45.2703 4.18549 45.8854 3.7596 45.8854 3.23425V2.283C45.8854 1.75764 45.2703 1.33175 44.5115 1.33175H38.7415C37.9828 1.33175 37.3677 1.75764 37.3677 2.283V3.23425C37.3677 3.7596 37.9828 4.18549 38.7415 4.18549ZM59.8983 4.18549H54.1282C53.3695 4.18549 52.7544 3.7596 52.7544 3.23425V2.283C52.7544 1.75764 53.3695 1.33175 54.1282 1.33175H59.8983C60.657 1.33175 61.2721 1.75764 61.2721 2.283V3.23425C61.2721 3.7596 60.657 4.18549 59.8983 4.18549Z" fill="white"/>
<path d="M11.1712 21.7495H8.94162V13.4747C8.94162 13.3131 8.91043 13.1623 8.84807 13.0222C8.7909 12.8822 8.71034 12.7609 8.6064 12.6586C8.50766 12.5508 8.39072 12.4673 8.2556 12.4081C8.12047 12.3488 7.97495 12.3192 7.81904 12.3192C7.66313 12.3192 7.51761 12.3488 7.38248 12.4081C7.24736 12.4673 7.12783 12.5508 7.02388 12.6586C6.92514 12.7609 6.84718 12.8822 6.79001 13.0222C6.73285 13.1623 6.70426 13.3131 6.70426 13.4747V21.7495H4.46691V13.4747C4.46691 13.3131 4.43833 13.1623 4.38116 13.0222C4.32399 12.8822 4.24343 12.7609 4.13949 12.6586C4.04075 12.5508 3.92381 12.4673 3.78869 12.4081C3.65356 12.3488 3.50804 12.3192 3.35213 12.3192C3.19622 12.3192 3.0507 12.3488 2.91557 12.4081C2.78045 12.4673 2.66092 12.5508 2.55697 12.6586C2.45823 12.7609 2.38027 12.8822 2.3231 13.0222C2.26594 13.1623 2.23735 13.3131 2.23735 13.4747V21.7495H0V13.4747C0 12.9953 0.0857522 12.5455 0.257257 12.1253C0.433958 11.6997 0.673025 11.3306 0.974457 11.0182C1.28109 10.7003 1.63709 10.4525 2.04246 10.2747C2.45303 10.0916 2.88959 10 3.35213 10C3.7679 10 4.16808 10.0781 4.55266 10.2343C4.93725 10.3852 5.28286 10.6061 5.58948 10.897C5.89611 10.6061 6.23912 10.3852 6.61851 10.2343C7.0031 10.0781 7.40327 10 7.81904 10C8.28158 10 8.71554 10.0916 9.12091 10.2747C9.53149 10.4525 9.88749 10.7003 10.1889 11.0182C10.4955 11.3306 10.7346 11.6997 10.9061 12.1253C11.0828 12.5455 11.1712 12.9953 11.1712 13.4747V21.7495Z" fill="#81BECB"/>
<path d="M24.1275 16.004C24.1275 16.5535 24.0574 17.0842 23.9171 17.596C23.7819 18.1024 23.5896 18.5791 23.3402 19.0263C23.0907 19.468 22.7893 19.8721 22.4359 20.2384C22.0825 20.6047 21.6927 20.9199 21.2665 21.1838C20.8404 21.4424 20.3804 21.6418 19.8867 21.7818C19.393 21.9273 18.8811 22 18.351 22C17.8209 22 17.309 21.9273 16.8152 21.7818C16.3267 21.6418 15.8668 21.4424 15.4354 21.1838C15.0092 20.9199 14.6194 20.6047 14.266 20.2384C13.9126 19.8721 13.6086 19.468 13.354 19.0263C13.1045 18.5791 12.9096 18.1024 12.7693 17.596C12.6342 17.0842 12.5666 16.5535 12.5666 16.004C12.5666 15.4545 12.6342 14.9239 12.7693 14.4121C12.9096 13.9003 13.1045 13.4236 13.354 12.9818C13.6086 12.5401 13.9126 12.136 14.266 11.7697C14.6194 11.4034 15.0092 11.0909 15.4354 10.8323C15.8668 10.5737 16.3267 10.3744 16.8152 10.2343C17.309 10.0889 17.8209 10.0162 18.351 10.0162C18.8811 10.0162 19.393 10.0889 19.8867 10.2343C20.3804 10.3744 20.8404 10.5737 21.2665 10.8323C21.6927 11.0909 22.0825 11.4034 22.4359 11.7697C22.7893 12.136 23.0907 12.5401 23.3402 12.9818C23.5896 13.4236 23.7819 13.9003 23.9171 14.4121C24.0574 14.9239 24.1275 15.4545 24.1275 16.004ZM21.9058 16.004C21.9058 15.4976 21.8122 15.0209 21.6251 14.5737C21.438 14.1212 21.1834 13.7306 20.8612 13.402C20.5441 13.068 20.1674 12.804 19.7308 12.6101C19.2994 12.4162 18.8395 12.3192 18.351 12.3192C17.8572 12.3192 17.3947 12.4162 16.9633 12.6101C16.532 12.804 16.1552 13.068 15.833 13.402C15.5108 13.7306 15.2561 14.1212 15.069 14.5737C14.8819 15.0209 14.7884 15.4976 14.7884 16.004C14.7884 16.5104 14.8819 16.9872 15.069 17.4343C15.2561 17.8761 15.5108 18.264 15.833 18.598C16.1552 18.932 16.532 19.196 16.9633 19.3899C17.3947 19.5838 17.8572 19.6808 18.351 19.6808C18.8395 19.6808 19.2994 19.5838 19.7308 19.3899C20.1674 19.196 20.5441 18.932 20.8612 18.598C21.1834 18.264 21.438 17.8761 21.6251 17.4343C21.8122 16.9872 21.9058 16.5104 21.9058 16.004Z" fill="#81BECB"/>
<path d="M33.9423 10.1616L30.2705 21.7495H28.0332L24.377 10.1616H26.9184L29.148 17.8949L31.3853 10.1616H33.9423Z" fill="#81BECB"/>
<path d="M37.2554 21.7495H35.0181V10.1616H37.2554V21.7495Z" fill="#81BECB"/>
<path d="M47 21.7495H39.3369V10.1616H47V12.4808H41.5742V14.8H45.246V17.1192H41.5742V19.4303H47V21.7495Z" fill="#81BECB"/>
</svg>
